<svg height="512pt" viewBox="0 -25 512 512" width="512pt" xmlns="http://www.w3.org/2000/svg"><path d="m464.769531 338.777344v-323.167969c0-8.621094-6.988281-15.609375-15.609375-15.609375h-55.925781c-8.621094 0-15.613281 6.988281-15.613281 15.609375s6.992187 15.609375 15.613281 15.609375h40.316406v58.4375h-10.628906c-27.71875 0-50.269531 22.550781-50.269531 50.269531v101.855469c0 27.71875 22.550781 50.269531 50.269531 50.269531h10.628906v46.730469c-22.128906 5.675781-39.585937 23.132812-45.261719 45.261719h-212.523437c-7.632813-55.5-55.363281-98.390625-112.925781-98.390625-8.621094 0-15.609375 6.988281-15.609375 15.609375 0 8.621093 6.988281 15.609375 15.609375 15.609375 40.308594 0 73.960937 28.964844 81.285156 67.171875h-20.414062c-6.957032-27.121094-31.609376-47.226563-60.871094-47.226563-34.652344-.003906-62.839844 28.1875-62.839844 62.835938 0 34.648437 28.1875 62.835937 62.839844 62.835937 29.261718 0 53.914062-20.105469 60.871094-47.226562h264.578124c6.957032 27.121093 31.609376 47.226562 60.871094 47.226562 34.652344 0 62.839844-28.1875 62.839844-62.835937 0-29.261719-20.105469-53.914063-47.230469-60.875zm-15.609375 92.492187c-17.433594 0-31.617187-14.183593-31.617187-31.617187s14.183593-31.617188 31.617187-31.617188c17.4375 0 31.621094 14.183594 31.621094 31.617188s-14.183594 31.617187-31.621094 31.617187zm-45.289062-189.492187v-101.851563c0-10.507812 8.546875-19.050781 19.050781-19.050781h10.628906v139.953125h-10.628906c-10.503906 0-19.050781-8.542969-19.050781-19.050781zm-341.03125 189.492187c-17.4375 0-31.621094-14.183593-31.621094-31.617187s14.183594-31.617188 31.621094-31.617188c17.433594 0 31.617187 14.183594 31.617187 31.617188s-14.183593 31.617187-31.617187 31.617187zm0 0"/></svg>